<?xml version="1.0" encoding="UTF-8" standalone="no"?>
<!-- Created with Inkscape (http://www.inkscape.org/) -->

<svg
   xmlns:dc="http://purl.org/dc/elements/1.1/"
   xmlns:cc="http://creativecommons.org/ns#"
   xmlns:rdf="http://www.w3.org/1999/02/22-rdf-syntax-ns#"
   xmlns:svg="http://www.w3.org/2000/svg"
   xmlns="http://www.w3.org/2000/svg"
   xmlns:sodipodi="http://sodipodi.sourceforge.net/DTD/sodipodi-0.dtd"
   xmlns:inkscape="http://www.inkscape.org/namespaces/inkscape"
   width="210mm"
   height="297mm"
   viewBox="0 0 210 297"
   version="1.1"
   id="svg3875"
   inkscape:version="0.92.2 5c3e80d, 2017-08-06"
   sodipodi:docname="crystal_b.svg">
  <defs
     id="defs3869" />
  <sodipodi:namedview
     id="base"
     pagecolor="#ffffff"
     bordercolor="#666666"
     borderopacity="1.0"
     inkscape:pageopacity="0.0"
     inkscape:pageshadow="2"
     inkscape:zoom="0.35"
     inkscape:cx="-114.28571"
     inkscape:cy="560"
     inkscape:document-units="mm"
     inkscape:current-layer="layer1"
     showgrid="false"
     inkscape:window-width="1440"
     inkscape:window-height="855"
     inkscape:window-x="0"
     inkscape:window-y="1"
     inkscape:window-maximized="1" />
  <metadata
     id="metadata3872">
    <rdf:RDF>
      <cc:Work
         rdf:about="">
        <dc:format>image/svg+xml</dc:format>
        <dc:type
           rdf:resource="http://purl.org/dc/dcmitype/StillImage" />
        <dc:title></dc:title>
      </cc:Work>
    </rdf:RDF>
  </metadata>
  <g
     inkscape:label="Layer 1"
     inkscape:groupmode="layer"
     id="layer1">
    <path
       id="path3009"
       style="fill:none;stroke:#000000;stroke-width:0.26458332;stroke-opacity:1"
       d="m 90.580046,137.3941 c 2.21431,0.84859 2.34708,0.95318 3.50209,2.75876 l 0.91402,1.42883 -0.5657,4.66804 c -0.31113,2.56743 -0.65069,4.95236 -0.75459,5.29985 -0.16055,0.53703 -0.91137,-0.6011 -5.00536,-7.5873 -2.64906,-4.5205 -4.81648,-8.27046 -4.81648,-8.33322 0,-0.21934 4.91048,1.06927 6.72602,1.76504 z m 2.79125,-1.20351 -0.5903,1.0503 -1.17066,-0.43388 c -1.08566,-0.40237 -1.12639,-0.45042 -0.56089,-0.66161 0.33538,-0.12526 1.08603,-0.44036 1.66811,-0.70023 0.58209,-0.25987 1.10012,-0.43477 1.15119,-0.38868 0.0511,0.0461 -0.17279,0.55644 -0.49745,1.1341 z m 19.322304,-8.04208 c 0,0.0645 -1.39898,1.95821 -3.10885,4.20836 -1.70987,2.25015 -5.72823,7.5562 -8.92969,11.79122 -3.201464,4.23503 -5.851314,7.55025 -5.888564,7.36716 -0.0373,-0.18309 0.21665,-2.44436 0.56422,-5.02505 0.60865,-4.5191 0.66364,-4.72824 1.49089,-5.67042 0.4724,-0.53804 3.236704,-3.63555 6.142884,-6.88335 l 5.28395,-5.9051 h 2.22258 c 1.22242,0 2.22258,0.0527 2.22258,0.11718 z m -7.27588,-1.67065 2.02516,1.09236 -0.90422,0.95816 c -0.49732,0.52699 -3.12486,3.42965 -5.83898,6.45036 -2.714124,3.02072 -5.002654,5.52103 -5.085624,5.55625 -0.083,0.0352 -0.55063,-0.57 -1.03925,-1.34495 l -0.88839,-1.40899 0.63202,-1.36416 c 0.59823,-1.29121 8.427634,-11.03139 8.867314,-11.03139 0.11374,0 1.11813,0.49156 2.23197,1.09236 z m 4.72153,-3.40747 2.8262,3.90261 h -2.35268 c -2.29837,0 -2.40382,-0.0281 -4.5677,-1.21677 -1.21825,-0.66923 -2.2962,-1.29431 -2.39544,-1.38907 -0.0992,-0.0948 -0.0145,-2.01776 0.18827,-4.27333 0.20279,-2.25557 0.37328,-4.33433 0.37887,-4.61947 0.0105,-0.53519 0.34046,-0.11199 5.92248,7.59603 z m -7.14205,-4.36562 c -0.1751,2.00091 -0.32723,4.07108 -0.33806,4.60037 -0.0172,0.83837 -0.53957,1.59421 -4.054604,5.8665 -2.89399,3.51745 -4.19702,4.90994 -4.60827,4.92463 -0.31536,0.0113 -1.1289,0.2586 -1.80787,0.54964 -1.42334,0.61012 -4.76436,0.72179 -7.03374,0.23509 l -1.37126,-0.29408 9.7574,-9.76009 c 5.36658,-5.36804 9.761314,-9.76008 9.766094,-9.76008 0.005,0 -0.1346,1.63711 -0.30969,3.63802 z m -10.082434,5.16058 c -5.85652,5.85788 -10.64824,10.75203 -10.64824,10.8759 0,0.12386 0.81955,1.61159 1.82122,3.30608 1.00168,1.69448 3.4553,5.87883 5.45249,9.29857 3.95266,6.76805 4.02848,6.88462 4.46649,6.86752 0.16408,-0.006 1.38575,-1.46492 2.71483,-3.24114 2.65217,-3.54447 9.193254,-12.19531 14.293014,-18.90309 1.79659,-2.36308 3.26653,-4.43018 3.26653,-4.59355 0,-0.16338 -1.09148,-1.80182 -2.42552,-3.64099 -1.33403,-1.83917 -3.60325,-4.98105 -5.0427,-6.98196 -1.43945,-2.00092 -2.75953,-3.63803 -2.93352,-3.63803 -0.17398,0 -5.108054,4.79282 -10.964594,10.65069 z"
       inkscape:connector-curvature="0" />
  </g>
</svg>
