<?xml version="1.0" encoding="UTF-8" standalone="no"?>
<!-- Created with Inkscape (http://www.inkscape.org/) -->

<svg
   xmlns:dc="http://purl.org/dc/elements/1.1/"
   xmlns:cc="http://creativecommons.org/ns#"
   xmlns:rdf="http://www.w3.org/1999/02/22-rdf-syntax-ns#"
   xmlns:svg="http://www.w3.org/2000/svg"
   xmlns="http://www.w3.org/2000/svg"
   xmlns:sodipodi="http://sodipodi.sourceforge.net/DTD/sodipodi-0.dtd"
   xmlns:inkscape="http://www.inkscape.org/namespaces/inkscape"
   width="210mm"
   height="297mm"
   viewBox="0 0 210 297"
   version="1.1"
   id="svg3299"
   inkscape:version="0.92.2 5c3e80d, 2017-08-06"
   sodipodi:docname="crystal_a.svg">
  <defs
     id="defs3293" />
  <sodipodi:namedview
     id="base"
     pagecolor="#ffffff"
     bordercolor="#666666"
     borderopacity="1.0"
     inkscape:pageopacity="0.0"
     inkscape:pageshadow="2"
     inkscape:zoom="0.35"
     inkscape:cx="-114.28571"
     inkscape:cy="560"
     inkscape:document-units="mm"
     inkscape:current-layer="layer1"
     showgrid="false"
     inkscape:window-width="1440"
     inkscape:window-height="855"
     inkscape:window-x="0"
     inkscape:window-y="1"
     inkscape:window-maximized="1" />
  <metadata
     id="metadata3296">
    <rdf:RDF>
      <cc:Work
         rdf:about="">
        <dc:format>image/svg+xml</dc:format>
        <dc:type
           rdf:resource="http://purl.org/dc/dcmitype/StillImage" />
        <dc:title></dc:title>
      </cc:Work>
    </rdf:RDF>
  </metadata>
  <g
     inkscape:label="Layer 1"
     inkscape:groupmode="layer"
     id="layer1">
    <path
       id="path2699"
       style="fill:none;stroke:#000000;stroke-width:0.26458332;stroke-opacity:1"
       d="m 150.25301,131.23974 c 1.47223,3.92898 2.6415,7.1436 2.59835,7.1436 -0.0431,0 -1.99814,-2.26336 -4.34444,-5.0297 -2.72344,-3.21098 -4.19463,-5.14834 -4.0686,-5.35781 0.58077,-0.96532 2.8087,-3.89997 2.96068,-3.89984 0.0975,9e-5 1.38177,3.21478 2.85401,7.14375 z m 14.68327,-5.22918 0.75467,1.25325 -3.86552,4.56758 c -5.10084,6.02726 -5.11152,6.03678 -3.78565,3.37695 0.61658,-1.23693 2.12332,-4.33255 3.34832,-6.87917 1.92636,-4.00465 2.26552,-4.55871 2.51039,-4.10104 0.15572,0.29104 0.62272,1.09313 1.03779,1.78243 z m -6.19149,5.49361 c -2.20174,4.51115 -4.06809,8.20209 -4.14743,8.20209 -0.0794,0 -1.52821,-3.69094 -3.2197,-8.20209 l -3.07541,-8.20208 h 7.22285 7.22286 z m 6.83261,-33.020725 1.77935,2.433445 -0.72538,12.18478 c -0.39895,6.70164 -0.75781,12.22053 -0.79744,12.26419 -0.0396,0.0437 -0.45163,-0.53746 -0.91553,-1.2914 l -0.84346,-1.3708 -0.23577,-11.2763 c -0.27313,-13.063174 -0.29546,-15.377345 -0.1484,-15.377345 0.059,0 0.90799,1.09504 1.88663,2.43343 z m -18.13102,11.845835 -0.31875,12.2949 -1.36321,1.91302 c -0.74977,1.05216 -1.4646,1.91906 -1.58851,1.92645 -0.1239,0.007 -0.15645,-0.79023 -0.0723,-1.7725 0.0841,-0.98226 0.22886,-7.02468 0.32162,-13.4276 l 0.16865,-11.641664 1.49117,-1.83366 1.49117,-1.83366 0.0945,1.03991 c 0.052,0.57195 -0.049,6.572624 -0.22429,13.334804 z m 15.1824,-13.948534 c 0.0802,0.9095 0.21974,7.100754 0.31019,13.758324 l 0.16446,12.10469 h -7.52492 -7.52491 l 0.0948,-2.57969 c 0.12913,-3.51513 0.62087,-22.415734 0.61954,-23.812494 l -0.001,-1.12448 h 6.85812 6.8581 z m -2.87086,-6.523809 2.49279,4.076409 h -6.47736 c -3.56254,0 -6.47735,-0.0564 -6.47735,-0.125261 0,-0.0689 0.79231,-1.40834 1.7607,-2.976558 0.96839,-1.56822 2.41268,-3.906566 3.20954,-5.196336 l 1.44884,-2.34504 0.77502,1.24519 c 0.42626,0.68485 1.89678,3.07957 3.26782,5.321596 z m -4.94383,-6.988116 c -0.34281,0.47835 -2.95882,4.30463 -5.81334,8.502835 l -5.19004,7.63311 -0.16589,5.203344 c -0.0912,2.86185 -0.2429,9.49995 -0.33702,14.75134 l -0.17113,9.54798 5.4704,6.45931 c 3.00873,3.55262 5.6343,6.4958 5.83462,6.54039 0.2055,0.0457 2.9684,-2.99179 6.34051,-6.97077 4.48531,-5.29253 5.97767,-7.22703 5.98183,-7.754 0.003,-0.38618 0.35309,-6.41714 0.77787,-13.40214 l 0.77232,-12.69999 -0.83953,-1.322925 c -3.77008,-5.940839 -11.38926,-17.213614 -11.67809,-17.278064 -0.19756,-0.0441 -0.63969,0.31122 -0.98251,0.78958 z"
       inkscape:connector-curvature="0" />
  </g>
</svg>
