<?xml version="1.0" encoding="UTF-8" standalone="no"?>
<!-- Created with Inkscape (http://www.inkscape.org/) -->

<svg
   xmlns:dc="http://purl.org/dc/elements/1.1/"
   xmlns:cc="http://creativecommons.org/ns#"
   xmlns:rdf="http://www.w3.org/1999/02/22-rdf-syntax-ns#"
   xmlns:svg="http://www.w3.org/2000/svg"
   xmlns="http://www.w3.org/2000/svg"
   xmlns:sodipodi="http://sodipodi.sourceforge.net/DTD/sodipodi-0.dtd"
   xmlns:inkscape="http://www.inkscape.org/namespaces/inkscape"
   width="210mm"
   height="297mm"
   viewBox="0 0 210 297"
   version="1.1"
   id="svg4469"
   inkscape:version="0.92.2 5c3e80d, 2017-08-06"
   sodipodi:docname="crystal_c.svg">
  <defs
     id="defs4463" />
  <sodipodi:namedview
     id="base"
     pagecolor="#ffffff"
     bordercolor="#666666"
     borderopacity="1.0"
     inkscape:pageopacity="0.0"
     inkscape:pageshadow="2"
     inkscape:zoom="0.35"
     inkscape:cx="-114.28571"
     inkscape:cy="560"
     inkscape:document-units="mm"
     inkscape:current-layer="layer1"
     showgrid="false"
     inkscape:window-width="1440"
     inkscape:window-height="855"
     inkscape:window-x="0"
     inkscape:window-y="1"
     inkscape:window-maximized="1" />
  <metadata
     id="metadata4466">
    <rdf:RDF>
      <cc:Work
         rdf:about="">
        <dc:format>image/svg+xml</dc:format>
        <dc:type
           rdf:resource="http://purl.org/dc/dcmitype/StillImage" />
        <dc:title></dc:title>
      </cc:Work>
    </rdf:RDF>
  </metadata>
  <g
     inkscape:label="Layer 1"
     inkscape:groupmode="layer"
     id="layer1">
    <path
       id="path2715"
       style="fill:none;stroke:#000000;stroke-width:0.26458332;stroke-opacity:1"
       d="m 95.172088,143.89 c 3.7195,6.0593 3.74007,6.09584 3.15319,5.60098 -0.27905,-0.2353 -2.61175,-2.27634 -5.18379,-4.53566 l -4.67644,-4.10787 1.89831,-0.39572 c 1.04407,-0.21764 2.01737,-0.40588 2.1629,-0.41832 0.14552,-0.0124 1.33614,1.72303 2.64583,3.85659 z m 10.951112,-2.61392 -5.07547,10.34392 -3.700662,-5.99824 c -2.03537,-3.29903 -3.59551,-6.03753 -3.46699,-6.08556 0.12852,-0.048 4.04126,-2.04009 8.694992,-4.42682 4.65372,-2.38673 8.49782,-4.30299 8.54245,-4.25836 0.0446,0.0446 -2.20282,4.73591 -4.99432,10.42506 z m 10.60199,-6.40668 c 2.85286,3.11975 3.93915,4.47963 3.73857,4.68021 -0.39262,0.39262 -17.86133,11.5377 -17.9481,11.45093 -0.0868,-0.0868 9.96553,-20.52863 10.09504,-20.52863 0.0513,0 1.90278,1.97887 4.11449,4.39749 z m 3.01573,-4.15794 c 0.61919,3.94283 1.10858,7.16878 1.08753,7.16878 -0.0211,0 -1.74314,-1.8614 -3.82687,-4.13645 -3.45301,-3.77005 -3.75911,-4.18367 -3.45566,-4.66956 0.71616,-1.14677 4.91176,-6.00388 4.98817,-5.77466 0.0446,0.13371 0.58765,3.46907 1.20683,7.41189 z m -13.85796,-6.53784 c 5.14686,4.65935 5.56992,5.10826 5.12258,5.43549 -0.48621,0.35566 -16.905302,8.8003 -17.110622,8.8003 -0.0594,0 0.27138,-1.16086 0.7352,-2.57969 0.46381,-1.41883 1.84669,-5.76461 3.07306,-9.65729 1.22637,-3.89268 2.306232,-7.07761 2.399682,-7.07761 0.0935,0 2.6945,2.28546 5.7801,5.0788 z m 4.17153,-3.60194 c 4.25625,0.86122 7.70906,1.65388 7.67291,1.76147 -0.12857,0.38266 -5.09645,6.26472 -5.30025,6.2756 -0.222,0.0119 -10.77277,-9.49698 -10.77277,-9.70892 0,-0.0694 0.14883,-0.074 0.33073,-0.0101 0.1819,0.0639 3.81312,0.82073 8.06938,1.68196 z m -12.246592,2.10672 c -0.64898,2.03086 -2.0847,6.55422 -3.19049,10.05191 l -2.01054,6.35944 -2.28926,0.42085 c -1.2591,0.23147 -2.32628,0.38865 -2.37151,0.34929 -0.14223,-0.12376 0.76573,-15.30181 0.96451,-16.12335 0.17578,-0.72649 0.53768,-0.92694 5.07746,-2.8123 2.6885,-1.11653 4.9133,-2.00941 4.94399,-1.98418 0.0307,0.0252 -0.47519,1.70749 -1.12416,3.73834 z m 0.4069,-4.5755 c -0.65485,0.30304 -3.1431,1.35847 -5.52945,2.34539 -2.38636,0.98691 -4.42745,1.8898 -4.53575,2.0064 -0.10831,0.11661 -0.38836,3.54576 -0.62233,7.62034 -0.23397,4.07459 -0.492,8.13098 -0.57342,9.01421 l -0.14802,1.60587 6.90958,6.06705 c 3.80027,3.33687 7.074842,6.10422 7.276832,6.14967 0.32759,0.0737 19.85725,-12.21224 20.72545,-13.03821 0.29189,-0.27768 0.11866,-1.84012 -1.01641,-9.1677 -0.75254,-4.85814 -1.47092,-8.94058 -1.5964,-9.07211 -0.20395,-0.21377 -18.78718,-4.13019 -19.434872,-4.0959 -0.14553,0.008 -0.80037,0.26195 -1.45521,0.56499 z"
       inkscape:connector-curvature="0" />
  </g>
</svg>
