  0
SECTION
  2
HEADER
  9
$ACADVER
  1
AC1014
  9
$HANDSEED
  5
FFFF
  9
$MEASUREMENT
 70
     1
  0
ENDSEC
  0
SECTION
  2
TABLES
  0
TABLE
  2
VPORT
  5
8
330
0
100
AcDbSymbolTable
 70
     4
  0
VPORT
  5
2E
330
8
100
AcDbSymbolTableRecord
100
AcDbViewportTableRecord
  2
*ACTIVE
 70
     0
 10
0.0
 20
0.0
 11
1.0
 21
1.0
 12
210.0
 22
148.5
 13
0.0
 23
0.0
 14
10.0
 24
10.0
 15
10.0
 25
10.0
 16
0.0
 26
0.0
 36
1.0
 17
0.0
 27
0.0
 37
0.0
 40
341.0
 41
1.24
 42
50.0
 43
0.0
 44
0.0
 50
0.0
 51
0.0
 71
     0
 72
   100
 73
     1
 74
     3
 75
     0
 76
     0
 77
     0
 78
     0
  0
ENDTAB
  0
TABLE
  2
LTYPE
  5
5
330
0
100
AcDbSymbolTable
 70
     1
  0
LTYPE
  5
14
330
5
100
AcDbSymbolTableRecord
100
AcDbLinetypeTableRecord
  2
BYBLOCK
 70
     0
  3

 72
    65
 73
     0
 40
0.0
  0
LTYPE
  5
15
330
5
100
AcDbSymbolTableRecord
100
AcDbLinetypeTableRecord
  2
BYLAYER
 70
     0
  3

 72
    65
 73
     0
 40
0.0
  0
LTYPE
  5
16
330
5
100
AcDbSymbolTableRecord
100
AcDbLinetypeTableRecord
  2
CONTINUOUS
 70
     0
  3
Solid line
 72
    65
 73
     0
 40
0.0
  0
ENDTAB
  0
TABLE
  2
LAYER
  5
2
100
AcDbSymbolTable
 70
2
  0
LAYER
  5
50
100
AcDbSymbolTableRecord
100
AcDbLayerTableRecord
  2
0
 70
0
  6
CONTINUOUS
  0
LAYER
  5
51
100
AcDbSymbolTableRecord
100
AcDbLayerTableRecord
  2
Layer_1
 70
0
  6
CONTINUOUS
  0
ENDTAB
  0
TABLE
  2
STYLE
  5
3
330
0
100
AcDbSymbolTable
 70
     1
  0
STYLE
  5
11
330
3
100
AcDbSymbolTableRecord
100
AcDbTextStyleTableRecord
  2
STANDARD
 70
     0
 40
0.0
 41
1.0
 50
0.0
 71
     0
 42
2.5
  3
txt
  4

  0
ENDTAB
  0
TABLE
  2
VIEW
  5
6
330
0
100
AcDbSymbolTable
 70
     0
  0
ENDTAB
  0
TABLE
  2
UCS
  5
7
330
0
100
AcDbSymbolTable
 70
     0
  0
ENDTAB
  0
TABLE
  2
APPID
  5
9
330
0
100
AcDbSymbolTable
 70
     2
  0
APPID
  5
12
330
9
100
AcDbSymbolTableRecord
100
AcDbRegAppTableRecord
  2
ACAD
 70
     0
  0
ENDTAB
  0
TABLE
  2
DIMSTYLE
  5
A
330
0
100
AcDbSymbolTable
 70
     1
  0
DIMSTYLE
105
27
330
A
100
AcDbSymbolTableRecord
100
AcDbDimStyleTableRecord
  2
ISO-25
 70
     0
  3

  4

  5

  6

  7

 40
1.0
 41
2.5
 42
0.625
 43
3.75
 44
1.25
 45
0.0
 46
0.0
 47
0.0
 48
0.0
140
2.5
141
2.5
142
0.0
143
0.03937007874016
144
1.0
145
0.0
146
1.0
147
0.625
 71
     0
 72
     0
 73
     0
 74
     0
 75
     0
 76
     0
 77
     1
 78
     8
170
     0
171
     3
172
     1
173
     0
174
     0
175
     0
176
     0
177
     0
178
     0
270
     2
271
     2
272
     2
273
     2
274
     3
340
11
275
     0
280
     0
281
     0
282
     0
283
     0
284
     8
285
     0
286
     0
287
     3
288
     0
  0
ENDTAB
  0
TABLE
  2
BLOCK_RECORD
  5
1
330
0
100
AcDbSymbolTable
 70
     1
  0
BLOCK_RECORD
  5
1F
330
1
100
AcDbSymbolTableRecord
100
AcDbBlockTableRecord
  2
*MODEL_SPACE
  0
BLOCK_RECORD
  5
1B
330
1
100
AcDbSymbolTableRecord
100
AcDbBlockTableRecord
  2
*PAPER_SPACE
  0
ENDTAB
  0
ENDSEC
  0
SECTION
  2
BLOCKS
  0
BLOCK
  5
20
330
1F
100
AcDbEntity
  8
0
100
AcDbBlockBegin
  2
*MODEL_SPACE
 70
     0
 10
0.0
 20
0.0
 30
0.0
  3
*MODEL_SPACE
  1

  0
ENDBLK
  5
21
330
1F
100
AcDbEntity
  8
0
100
AcDbBlockEnd
  0
BLOCK
  5
1C
330
1B
100
AcDbEntity
 67
     1
  8
0
100
AcDbBlockBegin
  2
*PAPER_SPACE
  1

  0
ENDBLK
  5
1D
330
1B
100
AcDbEntity
 67
     1
  8
0
100
AcDbBlockEnd
  0
ENDSEC
  0
SECTION
  2
ENTITIES
  0
SPLINE
  5
100
100
AcDbEntity
  8
Layer_1
 62
7
100
AcDbSpline
 70
8
 71
3
 72
8
 73
4
 74
0
 40
0
 40
0
 40
0
 40
0
 40
1
 40
1
 40
1
 40
1
 10
150.253010
 20
165.760260
 30
0.0
 10
151.725240
 20
161.831280
 30
0.0
 10
152.894510
 20
158.616660
 30
0.0
 10
152.851360
 20
158.616660
 30
0.0
  0
SPLINE
  5
101
100
AcDbEntity
  8
Layer_1
 62
7
100
AcDbSpline
 70
8
 71
3
 72
8
 73
4
 74
0
 40
0
 40
0
 40
0
 40
0
 40
1
 40
1
 40
1
 40
1
 10
152.851360
 20
158.616660
 30
0.0
 10
152.808260
 20
158.616660
 30
0.0
 10
150.853220
 20
160.880020
 30
0.0
 10
148.506920
 20
163.646360
 30
0.0
  0
SPLINE
  5
102
100
AcDbEntity
  8
Layer_1
 62
7
100
AcDbSpline
 70
8
 71
3
 72
8
 73
4
 74
0
 40
0
 40
0
 40
0
 40
0
 40
1
 40
1
 40
1
 40
1
 10
148.506920
 20
163.646360
 30
0.0
 10
145.783480
 20
166.857340
 30
0.0
 10
144.312290
 20
168.794700
 30
0.0
 10
144.438320
 20
169.004170
 30
0.0
  0
SPLINE
  5
103
100
AcDbEntity
  8
Layer_1
 62
7
100
AcDbSpline
 70
8
 71
3
 72
8
 73
4
 74
0
 40
0
 40
0
 40
0
 40
0
 40
1
 40
1
 40
1
 40
1
 10
144.438320
 20
169.004170
 30
0.0
 10
145.019090
 20
169.969490
 30
0.0
 10
147.247020
 20
172.904140
 30
0.0
 10
147.399000
 20
172.904010
 30
0.0
  0
SPLINE
  5
104
100
AcDbEntity
  8
Layer_1
 62
7
100
AcDbSpline
 70
8
 71
3
 72
8
 73
4
 74
0
 40
0
 40
0
 40
0
 40
0
 40
1
 40
1
 40
1
 40
1
 10
147.399000
 20
172.904010
 30
0.0
 10
147.496500
 20
172.903920
 30
0.0
 10
148.780770
 20
169.689230
 30
0.0
 10
150.253010
 20
165.760260
 30
0.0
  0
LWPOLYLINE
  5
105
100
AcDbEntity
  8
Layer_1
 62
7
100
AcDbPolyline
 90
1
 70
1
 10
150.253010
 20
165.760260
 30
0.0
  0
SPLINE
  5
106
100
AcDbEntity
  8
Layer_1
 62
7
100
AcDbSpline
 70
8
 71
3
 72
8
 73
4
 74
0
 40
0
 40
0
 40
0
 40
0
 40
1
 40
1
 40
1
 40
1
 10
161.825430
 20
165.168610
 30
0.0
 10
156.724590
 20
159.141350
 30
0.0
 10
156.713910
 20
159.131830
 30
0.0
 10
158.039780
 20
161.791660
 30
0.0
  0
SPLINE
  5
107
100
AcDbEntity
  8
Layer_1
 62
7
100
AcDbSpline
 70
8
 71
3
 72
8
 73
4
 74
0
 40
0
 40
0
 40
0
 40
0
 40
1
 40
1
 40
1
 40
1
 10
158.039780
 20
161.791660
 30
0.0
 10
158.656360
 20
163.028590
 30
0.0
 10
160.163100
 20
166.124210
 30
0.0
 10
161.388100
 20
168.670830
 30
0.0
  0
SPLINE
  5
108
100
AcDbEntity
  8
Layer_1
 62
7
100
AcDbSpline
 70
8
 71
3
 72
8
 73
4
 74
0
 40
0
 40
0
 40
0
 40
0
 40
1
 40
1
 40
1
 40
1
 10
161.388100
 20
168.670830
 30
0.0
 10
163.314460
 20
172.675480
 30
0.0
 10
163.653620
 20
173.229540
 30
0.0
 10
163.898490
 20
172.771870
 30
0.0
  0
SPLINE
  5
109
100
AcDbEntity
  8
Layer_1
 62
7
100
AcDbSpline
 70
8
 71
3
 72
8
 73
4
 74
0
 40
0
 40
0
 40
0
 40
0
 40
1
 40
1
 40
1
 40
1
 10
163.898490
 20
172.771870
 30
0.0
 10
164.054210
 20
172.480830
 30
0.0
 10
164.521210
 20
171.678740
 30
0.0
 10
164.936280
 20
170.989440
 30
0.0
  0
LWPOLYLINE
  5
10a
100
AcDbEntity
  8
Layer_1
 62
7
100
AcDbPolyline
 90
3
 70
0
 10
164.936280
 20
170.989440
 30
0.0
 10
165.690950
 20
169.736190
 30
0.0
 10
161.825430
 20
165.168610
 30
0.0
  0
SPLINE
  5
10b
100
AcDbEntity
  8
Layer_1
 62
7
100
AcDbSpline
 70
8
 71
3
 72
8
 73
4
 74
0
 40
0
 40
0
 40
0
 40
0
 40
1
 40
1
 40
1
 40
1
 10
158.744790
 20
165.495830
 30
0.0
 10
156.543050
 20
160.984680
 30
0.0
 10
154.676700
 20
157.293740
 30
0.0
 10
154.597360
 20
157.293740
 30
0.0
  0
SPLINE
  5
10c
100
AcDbEntity
  8
Layer_1
 62
7
100
AcDbSpline
 70
8
 71
3
 72
8
 73
4
 74
0
 40
0
 40
0
 40
0
 40
0
 40
1
 40
1
 40
1
 40
1
 10
154.597360
 20
157.293740
 30
0.0
 10
154.517960
 20
157.293740
 30
0.0
 10
153.069150
 20
160.984680
 30
0.0
 10
151.377660
 20
165.495830
 30
0.0
  0
LWPOLYLINE
  5
10d
100
AcDbEntity
  8
Layer_1
 62
7
100
AcDbPolyline
 90
1
 70
1
 10
164.936280
 20
170.989440
 30
0.0
  0
LWPOLYLINE
  5
10e
100
AcDbEntity
  8
Layer_1
 62
7
100
AcDbPolyline
 90
5
 70
0
 10
151.377660
 20
165.495830
 30
0.0
 10
148.302250
 20
173.697910
 30
0.0
 10
155.525100
 20
173.697910
 30
0.0
 10
162.747960
 20
173.697910
 30
0.0
 10
158.744790
 20
165.495830
 30
0.0
  0
SPLINE
  5
10f
100
AcDbEntity
  8
Layer_1
 62
7
100
AcDbSpline
 70
8
 71
3
 72
8
 73
4
 74
0
 40
0
 40
0
 40
0
 40
0
 40
1
 40
1
 40
1
 40
1
 10
166.631370
 20
183.898330
 30
0.0
 10
166.232420
 20
177.196690
 30
0.0
 10
165.873560
 20
171.677800
 30
0.0
 10
165.833930
 20
171.634140
 30
0.0
  0
SPLINE
  5
110
100
AcDbEntity
  8
Layer_1
 62
7
100
AcDbSpline
 70
8
 71
3
 72
8
 73
4
 74
0
 40
0
 40
0
 40
0
 40
0
 40
1
 40
1
 40
1
 40
1
 10
165.833930
 20
171.634140
 30
0.0
 10
165.794330
 20
171.590440
 30
0.0
 10
165.382300
 20
172.171600
 30
0.0
 10
164.918400
 20
172.925540
 30
0.0
  0
LWPOLYLINE
  5
111
100
AcDbEntity
  8
Layer_1
 62
7
100
AcDbPolyline
 90
3
 70
0
 10
165.577400
 20
198.516555
 30
0.0
 10
167.356750
 20
196.083110
 30
0.0
 10
166.631370
 20
183.898330
 30
0.0
  0
SPLINE
  5
112
100
AcDbEntity
  8
Layer_1
 62
7
100
AcDbSpline
 70
8
 71
3
 72
8
 73
4
 74
0
 40
0
 40
0
 40
0
 40
0
 40
1
 40
1
 40
1
 40
1
 10
163.839170
 20
185.572640
 30
0.0
 10
163.566040
 20
198.635814
 30
0.0
 10
163.543710
 20
200.949985
 30
0.0
 10
163.690770
 20
200.949985
 30
0.0
  0
SPLINE
  5
113
100
AcDbEntity
  8
Layer_1
 62
7
100
AcDbSpline
 70
8
 71
3
 72
8
 73
4
 74
0
 40
0
 40
0
 40
0
 40
0
 40
1
 40
1
 40
1
 40
1
 10
163.690770
 20
200.949985
 30
0.0
 10
163.749770
 20
200.949985
 30
0.0
 10
164.598760
 20
199.854945
 30
0.0
 10
165.577400
 20
198.516555
 30
0.0
  0
LWPOLYLINE
  5
114
100
AcDbEntity
  8
Layer_1
 62
7
100
AcDbPolyline
 90
3
 70
0
 10
164.918400
 20
172.925540
 30
0.0
 10
164.074940
 20
174.296340
 30
0.0
 10
163.839170
 20
185.572640
 30
0.0
  0
LWPOLYLINE
  5
115
100
AcDbEntity
  8
Layer_1
 62
7
100
AcDbPolyline
 90
1
 70
1
 10
165.577400
 20
198.516555
 30
0.0
  0
SPLINE
  5
116
100
AcDbEntity
  8
Layer_1
 62
7
100
AcDbSpline
 70
8
 71
3
 72
8
 73
4
 74
0
 40
0
 40
0
 40
0
 40
0
 40
1
 40
1
 40
1
 40
1
 10
145.764420
 20
172.462800
 30
0.0
 10
145.014650
 20
171.410640
 30
0.0
 10
144.299820
 20
170.543740
 30
0.0
 10
144.175910
 20
170.536350
 30
0.0
  0
SPLINE
  5
117
100
AcDbEntity
  8
Layer_1
 62
7
100
AcDbSpline
 70
8
 71
3
 72
8
 73
4
 74
0
 40
0
 40
0
 40
0
 40
0
 40
1
 40
1
 40
1
 40
1
 10
144.175910
 20
170.536350
 30
0.0
 10
144.052010
 20
170.529350
 30
0.0
 10
144.019460
 20
171.326580
 30
0.0
 10
144.103610
 20
172.308850
 30
0.0
  0
SPLINE
  5
118
100
AcDbEntity
  8
Layer_1
 62
7
100
AcDbSpline
 70
8
 71
3
 72
8
 73
4
 74
0
 40
0
 40
0
 40
0
 40
0
 40
1
 40
1
 40
1
 40
1
 10
144.103610
 20
172.308850
 30
0.0
 10
144.187710
 20
173.291110
 30
0.0
 10
144.332470
 20
179.333530
 30
0.0
 10
144.425230
 20
185.736450
 30
0.0
  0
LWPOLYLINE
  5
119
100
AcDbEntity
  8
Layer_1
 62
7
100
AcDbPolyline
 90
3
 70
0
 10
147.446380
 20
186.670720
 30
0.0
 10
147.127630
 20
174.375820
 30
0.0
 10
145.764420
 20
172.462800
 30
0.0
  0
SPLINE
  5
11a
100
AcDbEntity
  8
Layer_1
 62
7
100
AcDbSpline
 70
8
 71
3
 72
8
 73
4
 74
0
 40
0
 40
0
 40
0
 40
0
 40
1
 40
1
 40
1
 40
1
 10
147.670720
 20
200.005524
 30
0.0
 10
147.722720
 20
199.433574
 30
0.0
 10
147.621720
 20
193.432900
 30
0.0
 10
147.446430
 20
186.670720
 30
0.0
  0
LWPOLYLINE
  5
11b
100
AcDbEntity
  8
Layer_1
 62
7
100
AcDbPolyline
 90
5
 70
0
 10
144.425230
 20
185.736450
 30
0.0
 10
144.593880
 20
197.378114
 30
0.0
 10
146.085050
 20
199.211774
 30
0.0
 10
147.576220
 20
201.045434
 30
0.0
 10
147.670720
 20
200.005524
 30
0.0
  0
SPLINE
  5
11c
100
AcDbEntity
  8
Layer_1
 62
7
100
AcDbSpline
 70
8
 71
3
 72
8
 73
4
 74
0
 40
0
 40
0
 40
0
 40
0
 40
1
 40
1
 40
1
 40
1
 10
162.628780
 20
200.619254
 30
0.0
 10
162.708980
 20
199.709754
 30
0.0
 10
162.848520
 20
193.518500
 30
0.0
 10
162.938970
 20
186.860930
 30
0.0
  0
LWPOLYLINE
  5
11d
100
AcDbEntity
  8
Layer_1
 62
7
100
AcDbPolyline
 90
1
 70
1
 10
147.446430
 20
186.670720
 30
0.0
  0
SPLINE
  5
11e
100
AcDbEntity
  8
Layer_1
 62
7
100
AcDbSpline
 70
8
 71
3
 72
8
 73
4
 74
0
 40
0
 40
0
 40
0
 40
0
 40
1
 40
1
 40
1
 40
1
 10
148.148400
 20
177.335930
 30
0.0
 10
148.277530
 20
180.851060
 30
0.0
 10
148.769270
 20
199.751664
 30
0.0
 10
148.767940
 20
201.148424
 30
0.0
  0
LWPOLYLINE
  5
11f
100
AcDbEntity
  8
Layer_1
 62
7
100
AcDbPolyline
 90
5
 70
0
 10
162.938970
 20
186.860930
 30
0.0
 10
163.103430
 20
174.756240
 30
0.0
 10
155.578510
 20
174.756240
 30
0.0
 10
148.053600
 20
174.756240
 30
0.0
 10
148.148400
 20
177.335930
 30
0.0
  0
LWPOLYLINE
  5
120
100
AcDbEntity
  8
Layer_1
 62
7
100
AcDbPolyline
 90
5
 70
0
 10
148.767940
 20
201.148424
 30
0.0
 10
148.766940
 20
202.272904
 30
0.0
 10
155.625060
 20
202.272904
 30
0.0
 10
162.483160
 20
202.272904
 30
0.0
 10
162.628780
 20
200.619254
 30
0.0
  0
SPLINE
  5
121
100
AcDbEntity
  8
Layer_1
 62
7
100
AcDbSpline
 70
8
 71
3
 72
8
 73
4
 74
0
 40
0
 40
0
 40
0
 40
0
 40
1
 40
1
 40
1
 40
1
 10
155.773350
 20
203.066654
 30
0.0
 10
152.210810
 20
203.066654
 30
0.0
 10
149.296000
 20
203.123054
 30
0.0
 10
149.296000
 20
203.191915
 30
0.0
  0
SPLINE
  5
122
100
AcDbEntity
  8
Layer_1
 62
7
100
AcDbSpline
 70
8
 71
3
 72
8
 73
4
 74
0
 40
0
 40
0
 40
0
 40
0
 40
1
 40
1
 40
1
 40
1
 10
149.296000
 20
203.191915
 30
0.0
 10
149.296000
 20
203.260815
 30
0.0
 10
150.088310
 20
204.600255
 30
0.0
 10
151.056700
 20
206.168473
 30
0.0
  0
SPLINE
  5
123
100
AcDbEntity
  8
Layer_1
 62
7
100
AcDbSpline
 70
8
 71
3
 72
8
 73
4
 74
0
 40
0
 40
0
 40
0
 40
0
 40
1
 40
1
 40
1
 40
1
 10
151.056700
 20
206.168473
 30
0.0
 10
152.025090
 20
207.736693
 30
0.0
 10
153.469380
 20
210.075039
 30
0.0
 10
154.266240
 20
211.364809
 30
0.0
  0
LWPOLYLINE
  5
124
100
AcDbEntity
  8
Layer_1
 62
7
100
AcDbPolyline
 90
3
 70
0
 10
159.757920
 20
207.143063
 30
0.0
 10
162.250710
 20
203.066654
 30
0.0
 10
155.773350
 20
203.066654
 30
0.0
  0
SPLINE
  5
125
100
AcDbEntity
  8
Layer_1
 62
7
100
AcDbSpline
 70
8
 71
3
 72
8
 73
4
 74
0
 40
0
 40
0
 40
0
 40
0
 40
1
 40
1
 40
1
 40
1
 10
156.490100
 20
212.464659
 30
0.0
 10
156.916360
 20
211.779809
 30
0.0
 10
158.386880
 20
209.385089
 30
0.0
 10
159.757920
 20
207.143063
 30
0.0
  0
LWPOLYLINE
  5
126
100
AcDbEntity
  8
Layer_1
 62
7
100
AcDbPolyline
 90
3
 70
0
 10
154.266240
 20
211.364809
 30
0.0
 10
155.715080
 20
213.709849
 30
0.0
 10
156.490100
 20
212.464659
 30
0.0
  0
SPLINE
  5
127
100
AcDbEntity
  8
Layer_1
 62
7
100
AcDbSpline
 70
8
 71
3
 72
8
 73
4
 74
0
 40
0
 40
0
 40
0
 40
0
 40
1
 40
1
 40
1
 40
1
 10
154.814090
 20
214.131179
 30
0.0
 10
154.471280
 20
213.652829
 30
0.0
 10
151.855270
 20
209.826549
 30
0.0
 10
149.000750
 20
205.628344
 30
0.0
  0
LWPOLYLINE
  5
128
100
AcDbEntity
  8
Layer_1
 62
7
100
AcDbPolyline
 90
1
 70
1
 10
159.757920
 20
207.143063
 30
0.0
  0
SPLINE
  5
129
100
AcDbEntity
  8
Layer_1
 62
7
100
AcDbSpline
 70
8
 71
3
 72
8
 73
4
 74
0
 40
0
 40
0
 40
0
 40
0
 40
1
 40
1
 40
1
 40
1
 10
143.644820
 20
192.791890
 30
0.0
 10
143.553620
 20
189.930040
 30
0.0
 10
143.401920
 20
183.291940
 30
0.0
 10
143.307800
 20
178.040550
 30
0.0
  0
LWPOLYLINE
  5
12a
100
AcDbEntity
  8
Layer_1
 62
7
100
AcDbPolyline
 90
3
 70
0
 10
149.000750
 20
205.628344
 30
0.0
 10
143.810710
 20
197.995234
 30
0.0
 10
143.644820
 20
192.791890
 30
0.0
  0
SPLINE
  5
12b
100
AcDbEntity
  8
Layer_1
 62
7
100
AcDbSpline
 70
8
 71
3
 72
8
 73
4
 74
0
 40
0
 40
0
 40
0
 40
0
 40
1
 40
1
 40
1
 40
1
 10
148.607070
 20
162.033260
 30
0.0
 10
151.615800
 20
158.480640
 30
0.0
 10
154.241370
 20
155.537460
 30
0.0
 10
154.441690
 20
155.492870
 30
0.0
  0
SPLINE
  5
12c
100
AcDbEntity
  8
Layer_1
 62
7
100
AcDbSpline
 70
8
 71
3
 72
8
 73
4
 74
0
 40
0
 40
0
 40
0
 40
0
 40
1
 40
1
 40
1
 40
1
 10
154.441690
 20
155.492870
 30
0.0
 10
154.647190
 20
155.447170
 30
0.0
 10
157.410090
 20
158.484660
 30
0.0
 10
160.782200
 20
162.463640
 30
0.0
  0
SPLINE
  5
12d
100
AcDbEntity
  8
Layer_1
 62
7
100
AcDbSpline
 70
8
 71
3
 72
8
 73
4
 74
0
 40
0
 40
0
 40
0
 40
0
 40
1
 40
1
 40
1
 40
1
 10
160.782200
 20
162.463640
 30
0.0
 10
165.267510
 20
167.756170
 30
0.0
 10
166.759870
 20
169.690670
 30
0.0
 10
166.764030
 20
170.217640
 30
0.0
  0
SPLINE
  5
12e
100
AcDbEntity
  8
Layer_1
 62
7
100
AcDbSpline
 70
8
 71
3
 72
8
 73
4
 74
0
 40
0
 40
0
 40
0
 40
0
 40
1
 40
1
 40
1
 40
1
 10
166.764030
 20
170.217640
 30
0.0
 10
166.767030
 20
170.603820
 30
0.0
 10
167.117120
 20
176.634780
 30
0.0
 10
167.541900
 20
183.619780
 30
0.0
  0
LWPOLYLINE
  5
12f
100
AcDbEntity
  8
Layer_1
 62
7
100
AcDbPolyline
 90
3
 70
0
 10
143.307800
 20
178.040550
 30
0.0
 10
143.136670
 20
168.492570
 30
0.0
 10
148.607070
 20
162.033260
 30
0.0
  0
SPLINE
  5
130
100
AcDbEntity
  8
Layer_1
 62
7
100
AcDbSpline
 70
8
 71
3
 72
8
 73
4
 74
0
 40
0
 40
0
 40
0
 40
0
 40
1
 40
1
 40
1
 40
1
 10
167.474690
 20
197.642695
 30
0.0
 10
163.704610
 20
203.583534
 30
0.0
 10
156.085430
 20
214.856309
 30
0.0
 10
155.796600
 20
214.920759
 30
0.0
  0
SPLINE
  5
131
100
AcDbEntity
  8
Layer_1
 62
7
100
AcDbSpline
 70
8
 71
3
 72
8
 73
4
 74
0
 40
0
 40
0
 40
0
 40
0
 40
1
 40
1
 40
1
 40
1
 10
155.796600
 20
214.920759
 30
0.0
 10
155.599040
 20
214.964859
 30
0.0
 10
155.156910
 20
214.609539
 30
0.0
 10
154.814090
 20
214.131179
 30
0.0
  0
LWPOLYLINE
  5
132
100
AcDbEntity
  8
Layer_1
 62
7
100
AcDbPolyline
 90
3
 70
0
 10
167.541900
 20
183.619780
 30
0.0
 10
168.314220
 20
196.319770
 30
0.0
 10
167.474690
 20
197.642695
 30
0.0
  0
LWPOLYLINE
  5
133
100
AcDbEntity
  8
Layer_1
 62
7
100
AcDbPolyline
 90
1
 70
1
 10
154.814090
 20
214.131179
 30
0.0
  0
ENDSEC
  0
SECTION
  2
OBJECTS
  0
DICTIONARY
  5
C
330
0
100
AcDbDictionary
  3
ACAD_GROUP
350
D
  3
ACAD_MLINESTYLE
350
17
  0
DICTIONARY
  5
D
330
C
100
AcDbDictionary
  0
DICTIONARY
  5
1A
330
C
100
AcDbDictionary
  0
DICTIONARY
  5
17
330
C
100
AcDbDictionary
  3
STANDARD
350
18
  0
DICTIONARY
  5
19
330
C
100
AcDbDictionary
  0
ENDSEC
  0
EOF
