  0
SECTION
  2
HEADER
  9
$ACADVER
  1
AC1014
  9
$HANDSEED
  5
FFFF
  9
$MEASUREMENT
 70
     1
  0
ENDSEC
  0
SECTION
  2
TABLES
  0
TABLE
  2
VPORT
  5
8
330
0
100
AcDbSymbolTable
 70
     4
  0
VPORT
  5
2E
330
8
100
AcDbSymbolTableRecord
100
AcDbViewportTableRecord
  2
*ACTIVE
 70
     0
 10
0.0
 20
0.0
 11
1.0
 21
1.0
 12
210.0
 22
148.5
 13
0.0
 23
0.0
 14
10.0
 24
10.0
 15
10.0
 25
10.0
 16
0.0
 26
0.0
 36
1.0
 17
0.0
 27
0.0
 37
0.0
 40
341.0
 41
1.24
 42
50.0
 43
0.0
 44
0.0
 50
0.0
 51
0.0
 71
     0
 72
   100
 73
     1
 74
     3
 75
     0
 76
     0
 77
     0
 78
     0
  0
ENDTAB
  0
TABLE
  2
LTYPE
  5
5
330
0
100
AcDbSymbolTable
 70
     1
  0
LTYPE
  5
14
330
5
100
AcDbSymbolTableRecord
100
AcDbLinetypeTableRecord
  2
BYBLOCK
 70
     0
  3

 72
    65
 73
     0
 40
0.0
  0
LTYPE
  5
15
330
5
100
AcDbSymbolTableRecord
100
AcDbLinetypeTableRecord
  2
BYLAYER
 70
     0
  3

 72
    65
 73
     0
 40
0.0
  0
LTYPE
  5
16
330
5
100
AcDbSymbolTableRecord
100
AcDbLinetypeTableRecord
  2
CONTINUOUS
 70
     0
  3
Solid line
 72
    65
 73
     0
 40
0.0
  0
ENDTAB
  0
TABLE
  2
LAYER
  5
2
100
AcDbSymbolTable
 70
2
  0
LAYER
  5
50
100
AcDbSymbolTableRecord
100
AcDbLayerTableRecord
  2
0
 70
0
  6
CONTINUOUS
  0
LAYER
  5
51
100
AcDbSymbolTableRecord
100
AcDbLayerTableRecord
  2
Layer_1
 70
0
  6
CONTINUOUS
  0
ENDTAB
  0
TABLE
  2
STYLE
  5
3
330
0
100
AcDbSymbolTable
 70
     1
  0
STYLE
  5
11
330
3
100
AcDbSymbolTableRecord
100
AcDbTextStyleTableRecord
  2
STANDARD
 70
     0
 40
0.0
 41
1.0
 50
0.0
 71
     0
 42
2.5
  3
txt
  4

  0
ENDTAB
  0
TABLE
  2
VIEW
  5
6
330
0
100
AcDbSymbolTable
 70
     0
  0
ENDTAB
  0
TABLE
  2
UCS
  5
7
330
0
100
AcDbSymbolTable
 70
     0
  0
ENDTAB
  0
TABLE
  2
APPID
  5
9
330
0
100
AcDbSymbolTable
 70
     2
  0
APPID
  5
12
330
9
100
AcDbSymbolTableRecord
100
AcDbRegAppTableRecord
  2
ACAD
 70
     0
  0
ENDTAB
  0
TABLE
  2
DIMSTYLE
  5
A
330
0
100
AcDbSymbolTable
 70
     1
  0
DIMSTYLE
105
27
330
A
100
AcDbSymbolTableRecord
100
AcDbDimStyleTableRecord
  2
ISO-25
 70
     0
  3

  4

  5

  6

  7

 40
1.0
 41
2.5
 42
0.625
 43
3.75
 44
1.25
 45
0.0
 46
0.0
 47
0.0
 48
0.0
140
2.5
141
2.5
142
0.0
143
0.03937007874016
144
1.0
145
0.0
146
1.0
147
0.625
 71
     0
 72
     0
 73
     0
 74
     0
 75
     0
 76
     0
 77
     1
 78
     8
170
     0
171
     3
172
     1
173
     0
174
     0
175
     0
176
     0
177
     0
178
     0
270
     2
271
     2
272
     2
273
     2
274
     3
340
11
275
     0
280
     0
281
     0
282
     0
283
     0
284
     8
285
     0
286
     0
287
     3
288
     0
  0
ENDTAB
  0
TABLE
  2
BLOCK_RECORD
  5
1
330
0
100
AcDbSymbolTable
 70
     1
  0
BLOCK_RECORD
  5
1F
330
1
100
AcDbSymbolTableRecord
100
AcDbBlockTableRecord
  2
*MODEL_SPACE
  0
BLOCK_RECORD
  5
1B
330
1
100
AcDbSymbolTableRecord
100
AcDbBlockTableRecord
  2
*PAPER_SPACE
  0
ENDTAB
  0
ENDSEC
  0
SECTION
  2
BLOCKS
  0
BLOCK
  5
20
330
1F
100
AcDbEntity
  8
0
100
AcDbBlockBegin
  2
*MODEL_SPACE
 70
     0
 10
0.0
 20
0.0
 30
0.0
  3
*MODEL_SPACE
  1

  0
ENDBLK
  5
21
330
1F
100
AcDbEntity
  8
0
100
AcDbBlockEnd
  0
BLOCK
  5
1C
330
1B
100
AcDbEntity
 67
     1
  8
0
100
AcDbBlockBegin
  2
*PAPER_SPACE
  1

  0
ENDBLK
  5
1D
330
1B
100
AcDbEntity
 67
     1
  8
0
100
AcDbBlockEnd
  0
ENDSEC
  0
SECTION
  2
ENTITIES
  0
SPLINE
  5
100
100
AcDbEntity
  8
Layer_1
 62
7
100
AcDbSpline
 70
8
 71
3
 72
8
 73
4
 74
0
 40
0
 40
0
 40
0
 40
0
 40
1
 40
1
 40
1
 40
1
 10
90.580046
 20
159.605900
 30
0.0
 10
92.794356
 20
158.757310
 30
0.0
 10
92.927126
 20
158.652720
 30
0.0
 10
94.082136
 20
156.847140
 30
0.0
  0
SPLINE
  5
101
100
AcDbEntity
  8
Layer_1
 62
7
100
AcDbSpline
 70
8
 71
3
 72
8
 73
4
 74
0
 40
0
 40
0
 40
0
 40
0
 40
1
 40
1
 40
1
 40
1
 10
94.430456
 20
150.750270
 30
0.0
 10
94.119326
 20
148.182840
 30
0.0
 10
93.779766
 20
145.797910
 30
0.0
 10
93.675866
 20
145.450420
 30
0.0
  0
SPLINE
  5
102
100
AcDbEntity
  8
Layer_1
 62
7
100
AcDbSpline
 70
8
 71
3
 72
8
 73
4
 74
0
 40
0
 40
0
 40
0
 40
0
 40
1
 40
1
 40
1
 40
1
 10
93.675866
 20
145.450420
 30
0.0
 10
93.515316
 20
144.913390
 30
0.0
 10
92.764496
 20
146.051520
 30
0.0
 10
88.670506
 20
153.037720
 30
0.0
  0
SPLINE
  5
103
100
AcDbEntity
  8
Layer_1
 62
7
100
AcDbSpline
 70
8
 71
3
 72
8
 73
4
 74
0
 40
0
 40
0
 40
0
 40
0
 40
1
 40
1
 40
1
 40
1
 10
88.670506
 20
153.037720
 30
0.0
 10
86.021446
 20
157.558220
 30
0.0
 10
83.854026
 20
161.308180
 30
0.0
 10
83.854026
 20
161.370940
 30
0.0
  0
SPLINE
  5
104
100
AcDbEntity
  8
Layer_1
 62
7
100
AcDbSpline
 70
8
 71
3
 72
8
 73
4
 74
0
 40
0
 40
0
 40
0
 40
0
 40
1
 40
1
 40
1
 40
1
 10
83.854026
 20
161.370940
 30
0.0
 10
83.854026
 20
161.590280
 30
0.0
 10
88.764506
 20
160.301670
 30
0.0
 10
90.580046
 20
159.605900
 30
0.0
  0
LWPOLYLINE
  5
105
100
AcDbEntity
  8
Layer_1
 62
7
100
AcDbPolyline
 90
3
 70
0
 10
94.082136
 20
156.847140
 30
0.0
 10
94.996156
 20
155.418310
 30
0.0
 10
94.430456
 20
150.750270
 30
0.0
  0
LWPOLYLINE
  5
106
100
AcDbEntity
  8
Layer_1
 62
7
100
AcDbPolyline
 90
1
 70
1
 10
90.580046
 20
159.605900
 30
0.0
  0
SPLINE
  5
107
100
AcDbEntity
  8
Layer_1
 62
7
100
AcDbSpline
 70
8
 71
3
 72
8
 73
4
 74
0
 40
0
 40
0
 40
0
 40
0
 40
1
 40
1
 40
1
 40
1
 10
91.610336
 20
160.192990
 30
0.0
 10
90.524676
 20
160.595360
 30
0.0
 10
90.483946
 20
160.643410
 30
0.0
 10
91.049446
 20
160.854600
 30
0.0
  0
SPLINE
  5
108
100
AcDbEntity
  8
Layer_1
 62
7
100
AcDbSpline
 70
8
 71
3
 72
8
 73
4
 74
0
 40
0
 40
0
 40
0
 40
0
 40
1
 40
1
 40
1
 40
1
 10
91.049446
 20
160.854600
 30
0.0
 10
91.384826
 20
160.979860
 30
0.0
 10
92.135476
 20
161.294960
 30
0.0
 10
92.717556
 20
161.554830
 30
0.0
  0
SPLINE
  5
109
100
AcDbEntity
  8
Layer_1
 62
7
100
AcDbSpline
 70
8
 71
3
 72
8
 73
4
 74
0
 40
0
 40
0
 40
0
 40
0
 40
1
 40
1
 40
1
 40
1
 10
92.717556
 20
161.554830
 30
0.0
 10
93.299646
 20
161.814700
 30
0.0
 10
93.817676
 20
161.989600
 30
0.0
 10
93.868746
 20
161.943510
 30
0.0
  0
SPLINE
  5
10a
100
AcDbEntity
  8
Layer_1
 62
7
100
AcDbSpline
 70
8
 71
3
 72
8
 73
4
 74
0
 40
0
 40
0
 40
0
 40
0
 40
1
 40
1
 40
1
 40
1
 10
93.868746
 20
161.943510
 30
0.0
 10
93.919846
 20
161.897410
 30
0.0
 10
93.695956
 20
161.387070
 30
0.0
 10
93.371296
 20
160.809410
 30
0.0
  0
LWPOLYLINE
  5
10b
100
AcDbEntity
  8
Layer_1
 62
7
100
AcDbPolyline
 90
3
 70
0
 10
93.371296
 20
160.809410
 30
0.0
 10
92.780996
 20
159.759110
 30
0.0
 10
91.610336
 20
160.192990
 30
0.0
  0
SPLINE
  5
10c
100
AcDbEntity
  8
Layer_1
 62
7
100
AcDbSpline
 70
8
 71
3
 72
8
 73
4
 74
0
 40
0
 40
0
 40
0
 40
0
 40
1
 40
1
 40
1
 40
1
 10
112.693600
 20
168.851490
 30
0.0
 10
112.693600
 20
168.786990
 30
0.0
 10
111.294620
 20
166.893280
 30
0.0
 10
109.584750
 20
164.643130
 30
0.0
  0
SPLINE
  5
10d
100
AcDbEntity
  8
Layer_1
 62
7
100
AcDbSpline
 70
8
 71
3
 72
8
 73
4
 74
0
 40
0
 40
0
 40
0
 40
0
 40
1
 40
1
 40
1
 40
1
 10
109.584750
 20
164.643130
 30
0.0
 10
107.874880
 20
162.392980
 30
0.0
 10
103.856520
 20
157.086930
 30
0.0
 10
100.655060
 20
152.851910
 30
0.0
  0
SPLINE
  5
10e
100
AcDbEntity
  8
Layer_1
 62
7
100
AcDbSpline
 70
8
 71
3
 72
8
 73
4
 74
0
 40
0
 40
0
 40
0
 40
0
 40
1
 40
1
 40
1
 40
1
 10
100.655060
 20
152.851910
 30
0.0
 10
97.453596
 20
148.616880
 30
0.0
 10
94.803746
 20
145.301660
 30
0.0
 10
94.766496
 20
145.484750
 30
0.0
  0
SPLINE
  5
10f
100
AcDbEntity
  8
Layer_1
 62
7
100
AcDbSpline
 70
8
 71
3
 72
8
 73
4
 74
0
 40
0
 40
0
 40
0
 40
0
 40
1
 40
1
 40
1
 40
1
 10
94.766496
 20
145.484750
 30
0.0
 10
94.729196
 20
145.667840
 30
0.0
 10
94.983146
 20
147.929110
 30
0.0
 10
95.330716
 20
150.509800
 30
0.0
  0
SPLINE
  5
110
100
AcDbEntity
  8
Layer_1
 62
7
100
AcDbSpline
 70
8
 71
3
 72
8
 73
4
 74
0
 40
0
 40
0
 40
0
 40
0
 40
1
 40
1
 40
1
 40
1
 10
95.330716
 20
150.509800
 30
0.0
 10
95.939366
 20
155.028900
 30
0.0
 10
95.994356
 20
155.238040
 30
0.0
 10
96.821606
 20
156.180220
 30
0.0
  0
SPLINE
  5
111
100
AcDbEntity
  8
Layer_1
 62
7
100
AcDbSpline
 70
8
 71
3
 72
8
 73
4
 74
0
 40
0
 40
0
 40
0
 40
0
 40
1
 40
1
 40
1
 40
1
 10
96.821606
 20
156.180220
 30
0.0
 10
97.294006
 20
156.718260
 30
0.0
 10
100.058310
 20
159.815770
 30
0.0
 10
102.964490
 20
163.063570
 30
0.0
  0
LWPOLYLINE
  5
112
100
AcDbEntity
  8
Layer_1
 62
7
100
AcDbPolyline
 90
1
 70
1
 10
93.371296
 20
160.809410
 30
0.0
  0
SPLINE
  5
113
100
AcDbEntity
  8
Layer_1
 62
7
100
AcDbSpline
 70
8
 71
3
 72
8
 73
4
 74
0
 40
0
 40
0
 40
0
 40
0
 40
1
 40
1
 40
1
 40
1
 10
110.471020
 20
168.968670
 30
0.0
 10
111.693440
 20
168.968670
 30
0.0
 10
112.693600
 20
168.915970
 30
0.0
 10
112.693600
 20
168.851490
 30
0.0
  0
LWPOLYLINE
  5
114
100
AcDbEntity
  8
Layer_1
 62
7
100
AcDbPolyline
 90
3
 70
0
 10
102.964490
 20
163.063570
 30
0.0
 10
108.248440
 20
168.968670
 30
0.0
 10
110.471020
 20
168.968670
 30
0.0
  0
LWPOLYLINE
  5
115
100
AcDbEntity
  8
Layer_1
 62
7
100
AcDbPolyline
 90
1
 70
1
 10
112.693600
 20
168.851490
 30
0.0
  0
SPLINE
  5
116
100
AcDbEntity
  8
Layer_1
 62
7
100
AcDbSpline
 70
8
 71
3
 72
8
 73
4
 74
0
 40
0
 40
0
 40
0
 40
0
 40
1
 40
1
 40
1
 40
1
 10
106.538660
 20
168.471620
 30
0.0
 10
106.041340
 20
167.944630
 30
0.0
 10
103.413800
 20
165.041970
 30
0.0
 10
100.699680
 20
162.021260
 30
0.0
  0
SPLINE
  5
117
100
AcDbEntity
  8
Layer_1
 62
7
100
AcDbSpline
 70
8
 71
3
 72
8
 73
4
 74
0
 40
0
 40
0
 40
0
 40
0
 40
1
 40
1
 40
1
 40
1
 10
100.699680
 20
162.021260
 30
0.0
 10
97.985556
 20
159.000540
 30
0.0
 10
95.697026
 20
156.500230
 30
0.0
 10
95.614056
 20
156.465010
 30
0.0
  0
SPLINE
  5
118
100
AcDbEntity
  8
Layer_1
 62
7
100
AcDbSpline
 70
8
 71
3
 72
8
 73
4
 74
0
 40
0
 40
0
 40
0
 40
0
 40
1
 40
1
 40
1
 40
1
 10
95.614056
 20
156.465010
 30
0.0
 10
95.531056
 20
156.429810
 30
0.0
 10
95.063426
 20
157.035010
 30
0.0
 10
94.574806
 20
157.809960
 30
0.0
  0
LWPOLYLINE
  5
119
100
AcDbEntity
  8
Layer_1
 62
7
100
AcDbPolyline
 90
3
 70
0
 10
105.417720
 20
170.522140
 30
0.0
 10
107.442880
 20
169.429780
 30
0.0
 10
106.538660
 20
168.471620
 30
0.0
  0
SPLINE
  5
11a
100
AcDbEntity
  8
Layer_1
 62
7
100
AcDbSpline
 70
8
 71
3
 72
8
 73
4
 74
0
 40
0
 40
0
 40
0
 40
0
 40
1
 40
1
 40
1
 40
1
 10
94.318436
 20
160.583110
 30
0.0
 10
94.916666
 20
161.874320
 30
0.0
 10
102.746070
 20
171.614500
 30
0.0
 10
103.185750
 20
171.614500
 30
0.0
  0
SPLINE
  5
11b
100
AcDbEntity
  8
Layer_1
 62
7
100
AcDbSpline
 70
8
 71
3
 72
8
 73
4
 74
0
 40
0
 40
0
 40
0
 40
0
 40
1
 40
1
 40
1
 40
1
 10
103.185750
 20
171.614500
 30
0.0
 10
103.299490
 20
171.614500
 30
0.0
 10
104.303880
 20
171.122940
 30
0.0
 10
105.417720
 20
170.522140
 30
0.0
  0
LWPOLYLINE
  5
11c
100
AcDbEntity
  8
Layer_1
 62
7
100
AcDbPolyline
 90
3
 70
0
 10
94.574806
 20
157.809960
 30
0.0
 10
93.686416
 20
159.218950
 30
0.0
 10
94.318436
 20
160.583110
 30
0.0
  0
LWPOLYLINE
  5
11d
100
AcDbEntity
  8
Layer_1
 62
7
100
AcDbPolyline
 90
1
 70
1
 10
105.417720
 20
170.522140
 30
0.0
  0
SPLINE
  5
11e
100
AcDbEntity
  8
Layer_1
 62
7
100
AcDbSpline
 70
8
 71
3
 72
8
 73
4
 74
0
 40
0
 40
0
 40
0
 40
0
 40
1
 40
1
 40
1
 40
1
 10
110.612770
 20
170.027000
 30
0.0
 10
108.314400
 20
170.027000
 30
0.0
 10
108.208950
 20
170.055100
 30
0.0
 10
106.045070
 20
171.243770
 30
0.0
  0
SPLINE
  5
11f
100
AcDbEntity
  8
Layer_1
 62
7
100
AcDbSpline
 70
8
 71
3
 72
8
 73
4
 74
0
 40
0
 40
0
 40
0
 40
0
 40
1
 40
1
 40
1
 40
1
 10
106.045070
 20
171.243770
 30
0.0
 10
104.826820
 20
171.913000
 30
0.0
 10
103.748870
 20
172.538080
 30
0.0
 10
103.649630
 20
172.632840
 30
0.0
  0
SPLINE
  5
120
100
AcDbEntity
  8
Layer_1
 62
7
100
AcDbSpline
 70
8
 71
3
 72
8
 73
4
 74
0
 40
0
 40
0
 40
0
 40
0
 40
1
 40
1
 40
1
 40
1
 10
103.649630
 20
172.632840
 30
0.0
 10
103.550430
 20
172.727640
 30
0.0
 10
103.635130
 20
174.650600
 30
0.0
 10
103.837900
 20
176.906170
 30
0.0
  0
SPLINE
  5
121
100
AcDbEntity
  8
Layer_1
 62
7
100
AcDbSpline
 70
8
 71
3
 72
8
 73
4
 74
0
 40
0
 40
0
 40
0
 40
0
 40
1
 40
1
 40
1
 40
1
 10
103.837900
 20
176.906170
 30
0.0
 10
104.040690
 20
179.161740
 30
0.0
 10
104.211180
 20
181.240500
 30
0.0
 10
104.216770
 20
181.525640
 30
0.0
  0
SPLINE
  5
122
100
AcDbEntity
  8
Layer_1
 62
7
100
AcDbSpline
 70
8
 71
3
 72
8
 73
4
 74
0
 40
0
 40
0
 40
0
 40
0
 40
1
 40
1
 40
1
 40
1
 10
104.216770
 20
181.525640
 30
0.0
 10
104.227270
 20
182.060830
 30
0.0
 10
104.557230
 20
181.637630
 30
0.0
 10
110.139250
 20
173.929610
 30
0.0
  0
LWPOLYLINE
  5
123
100
AcDbEntity
  8
Layer_1
 62
7
100
AcDbPolyline
 90
3
 70
0
 10
110.139250
 20
173.929610
 30
0.0
 10
112.965450
 20
170.027000
 30
0.0
 10
110.612770
 20
170.027000
 30
0.0
  0
SPLINE
  5
124
100
AcDbEntity
  8
Layer_1
 62
7
100
AcDbSpline
 70
8
 71
3
 72
8
 73
4
 74
0
 40
0
 40
0
 40
0
 40
0
 40
1
 40
1
 40
1
 40
1
 10
102.997200
 20
178.295230
 30
0.0
 10
102.822100
 20
176.294320
 30
0.0
 10
102.669970
 20
174.224150
 30
0.0
 10
102.659140
 20
173.694860
 30
0.0
  0
SPLINE
  5
125
100
AcDbEntity
  8
Layer_1
 62
7
100
AcDbSpline
 70
8
 71
3
 72
8
 73
4
 74
0
 40
0
 40
0
 40
0
 40
0
 40
1
 40
1
 40
1
 40
1
 10
102.659140
 20
173.694860
 30
0.0
 10
102.641940
 20
172.856490
 30
0.0
 10
102.119570
 20
172.100650
 30
0.0
 10
98.604536
 20
167.828360
 30
0.0
  0
SPLINE
  5
126
100
AcDbEntity
  8
Layer_1
 62
7
100
AcDbSpline
 70
8
 71
3
 72
8
 73
4
 74
0
 40
0
 40
0
 40
0
 40
0
 40
1
 40
1
 40
1
 40
1
 10
98.604536
 20
167.828360
 30
0.0
 10
95.710546
 20
164.310910
 30
0.0
 10
94.407516
 20
162.918420
 30
0.0
 10
93.996266
 20
162.903730
 30
0.0
  0
SPLINE
  5
127
100
AcDbEntity
  8
Layer_1
 62
7
100
AcDbSpline
 70
8
 71
3
 72
8
 73
4
 74
0
 40
0
 40
0
 40
0
 40
0
 40
1
 40
1
 40
1
 40
1
 10
93.996266
 20
162.903730
 30
0.0
 10
93.680906
 20
162.892430
 30
0.0
 10
92.867366
 20
162.645130
 30
0.0
 10
92.188396
 20
162.354090
 30
0.0
  0
SPLINE
  5
128
100
AcDbEntity
  8
Layer_1
 62
7
100
AcDbSpline
 70
8
 71
3
 72
8
 73
4
 74
0
 40
0
 40
0
 40
0
 40
0
 40
1
 40
1
 40
1
 40
1
 10
92.188396
 20
162.354090
 30
0.0
 10
90.765056
 20
161.743970
 30
0.0
 10
87.424036
 20
161.632300
 30
0.0
 10
85.154656
 20
162.119000
 30
0.0
  0
LWPOLYLINE
  5
129
100
AcDbEntity
  8
Layer_1
 62
7
100
AcDbPolyline
 90
1
 70
1
 10
110.139250
 20
173.929610
 30
0.0
  0
SPLINE
  5
12a
100
AcDbEntity
  8
Layer_1
 62
7
100
AcDbSpline
 70
8
 71
3
 72
8
 73
4
 74
0
 40
0
 40
0
 40
0
 40
0
 40
1
 40
1
 40
1
 40
1
 10
93.540796
 20
172.173170
 30
0.0
 10
98.907376
 20
177.541210
 30
0.0
 10
103.302110
 20
181.933250
 30
0.0
 10
103.306890
 20
181.933250
 30
0.0
  0
SPLINE
  5
12b
100
AcDbEntity
  8
Layer_1
 62
7
100
AcDbSpline
 70
8
 71
3
 72
8
 73
4
 74
0
 40
0
 40
0
 40
0
 40
0
 40
1
 40
1
 40
1
 40
1
 10
103.306890
 20
181.933250
 30
0.0
 10
103.311890
 20
181.933250
 30
0.0
 10
103.172290
 20
180.296140
 30
0.0
 10
102.997200
 20
178.295230
 30
0.0
  0
LWPOLYLINE
  5
12c
100
AcDbEntity
  8
Layer_1
 62
7
100
AcDbPolyline
 90
3
 70
0
 10
85.154656
 20
162.119000
 30
0.0
 10
83.783396
 20
162.413080
 30
0.0
 10
93.540796
 20
172.173170
 30
0.0
  0
SPLINE
  5
12d
100
AcDbEntity
  8
Layer_1
 62
7
100
AcDbSpline
 70
8
 71
3
 72
8
 73
4
 74
0
 40
0
 40
0
 40
0
 40
0
 40
1
 40
1
 40
1
 40
1
 10
92.914766
 20
173.134650
 30
0.0
 10
87.058246
 20
167.276770
 30
0.0
 10
82.266526
 20
162.382620
 30
0.0
 10
82.266526
 20
162.258750
 30
0.0
  0
SPLINE
  5
12e
100
AcDbEntity
  8
Layer_1
 62
7
100
AcDbSpline
 70
8
 71
3
 72
8
 73
4
 74
0
 40
0
 40
0
 40
0
 40
0
 40
1
 40
1
 40
1
 40
1
 10
82.266526
 20
162.258750
 30
0.0
 10
82.266526
 20
162.134890
 30
0.0
 10
83.086076
 20
160.647160
 30
0.0
 10
84.087746
 20
158.952670
 30
0.0
  0
SPLINE
  5
12f
100
AcDbEntity
  8
Layer_1
 62
7
100
AcDbSpline
 70
8
 71
3
 72
8
 73
4
 74
0
 40
0
 40
0
 40
0
 40
0
 40
1
 40
1
 40
1
 40
1
 10
84.087746
 20
158.952670
 30
0.0
 10
85.089426
 20
157.258190
 30
0.0
 10
87.543046
 20
153.073840
 30
0.0
 10
89.540236
 20
149.654100
 30
0.0
  0
SPLINE
  5
130
100
AcDbEntity
  8
Layer_1
 62
7
100
AcDbSpline
 70
8
 71
3
 72
8
 73
4
 74
0
 40
0
 40
0
 40
0
 40
0
 40
1
 40
1
 40
1
 40
1
 10
89.540236
 20
149.654100
 30
0.0
 10
93.492896
 20
142.886050
 30
0.0
 10
93.568716
 20
142.769480
 30
0.0
 10
94.006726
 20
142.786580
 30
0.0
  0
SPLINE
  5
131
100
AcDbEntity
  8
Layer_1
 62
7
100
AcDbSpline
 70
8
 71
3
 72
8
 73
4
 74
0
 40
0
 40
0
 40
0
 40
0
 40
1
 40
1
 40
1
 40
1
 10
94.006726
 20
142.786580
 30
0.0
 10
94.170806
 20
142.792580
 30
0.0
 10
95.392476
 20
144.251500
 30
0.0
 10
96.721556
 20
146.027720
 30
0.0
  0
SPLINE
  5
132
100
AcDbEntity
  8
Layer_1
 62
7
100
AcDbSpline
 70
8
 71
3
 72
8
 73
4
 74
0
 40
0
 40
0
 40
0
 40
0
 40
1
 40
1
 40
1
 40
1
 10
96.721556
 20
146.027720
 30
0.0
 10
99.373726
 20
149.572190
 30
0.0
 10
105.914810
 20
158.223030
 30
0.0
 10
111.014570
 20
164.930810
 30
0.0
  0
SPLINE
  5
133
100
AcDbEntity
  8
Layer_1
 62
7
100
AcDbSpline
 70
8
 71
3
 72
8
 73
4
 74
0
 40
0
 40
0
 40
0
 40
0
 40
1
 40
1
 40
1
 40
1
 10
111.014570
 20
164.930810
 30
0.0
 10
112.811160
 20
167.293890
 30
0.0
 10
114.281100
 20
169.360990
 30
0.0
 10
114.281100
 20
169.524360
 30
0.0
  0
SPLINE
  5
134
100
AcDbEntity
  8
Layer_1
 62
7
100
AcDbSpline
 70
8
 71
3
 72
8
 73
4
 74
0
 40
0
 40
0
 40
0
 40
0
 40
1
 40
1
 40
1
 40
1
 10
114.281100
 20
169.524360
 30
0.0
 10
114.281100
 20
169.687740
 30
0.0
 10
113.189620
 20
171.326180
 30
0.0
 10
111.855580
 20
173.165350
 30
0.0
  0
SPLINE
  5
135
100
AcDbEntity
  8
Layer_1
 62
7
100
AcDbSpline
 70
8
 71
3
 72
8
 73
4
 74
0
 40
0
 40
0
 40
0
 40
0
 40
1
 40
1
 40
1
 40
1
 10
111.855580
 20
173.165350
 30
0.0
 10
110.521550
 20
175.004520
 30
0.0
 10
108.252330
 20
178.146400
 30
0.0
 10
106.812880
 20
180.147310
 30
0.0
  0
SPLINE
  5
136
100
AcDbEntity
  8
Layer_1
 62
7
100
AcDbSpline
 70
8
 71
3
 72
8
 73
4
 74
0
 40
0
 40
0
 40
0
 40
0
 40
1
 40
1
 40
1
 40
1
 10
106.812880
 20
180.147310
 30
0.0
 10
105.373430
 20
182.148230
 30
0.0
 10
104.053350
 20
183.785340
 30
0.0
 10
103.879360
 20
183.785340
 30
0.0
  0
SPLINE
  5
137
100
AcDbEntity
  8
Layer_1
 62
7
100
AcDbSpline
 70
8
 71
3
 72
8
 73
4
 74
0
 40
0
 40
0
 40
0
 40
0
 40
1
 40
1
 40
1
 40
1
 10
103.879360
 20
183.785340
 30
0.0
 10
103.705380
 20
183.785340
 30
0.0
 10
98.771306
 20
178.992520
 30
0.0
 10
92.914766
 20
173.134650
 30
0.0
  0
LWPOLYLINE
  5
138
100
AcDbEntity
  8
Layer_1
 62
7
100
AcDbPolyline
 90
1
 70
1
 10
102.997200
 20
178.295230
 30
0.0
  0
LWPOLYLINE
  5
139
100
AcDbEntity
  8
Layer_1
 62
7
100
AcDbPolyline
 90
1
 70
1
 10
92.914766
 20
173.134650
 30
0.0
  0
ENDSEC
  0
SECTION
  2
OBJECTS
  0
DICTIONARY
  5
C
330
0
100
AcDbDictionary
  3
ACAD_GROUP
350
D
  3
ACAD_MLINESTYLE
350
17
  0
DICTIONARY
  5
D
330
C
100
AcDbDictionary
  0
DICTIONARY
  5
1A
330
C
100
AcDbDictionary
  0
DICTIONARY
  5
17
330
C
100
AcDbDictionary
  3
STANDARD
350
18
  0
DICTIONARY
  5
19
330
C
100
AcDbDictionary
  0
ENDSEC
  0
EOF
